<svg width="99" height="14" viewBox="0 0 99 14" fill="none" xmlns="http://www.w3.org/2000/svg">
<path d="M5.06 13.4C9.22 13.4 11.44 10.84 11.44 6.7C11.44 2.56 9.2 0 5.06 0H0V13.4H5.06ZM4.78 2C7.56 2 9.08 3.34 9.08 6.7C9.08 10.06 7.56 11.4 4.8 11.4H2.26V2H4.78Z" fill="#FF4D00"/>
<path d="M17.8909 13.6C20.0509 13.6 21.3709 12.62 22.1109 11.5L20.7309 10.06C20.3709 10.88 19.6109 11.76 17.9109 11.76C16.3709 11.76 15.3509 10.82 15.2309 9.08H22.1909C22.2309 8.88 22.2709 8.46 22.2709 8.1C22.2709 5.4 20.6509 3.46 17.7309 3.46C14.9909 3.46 13.0909 5.48 13.0909 8.54C13.0909 11.58 14.9909 13.6 17.8909 13.6ZM17.7309 5.26C19.2109 5.26 20.0909 6.1 20.2509 7.64H15.2509C15.4309 6.06 16.3509 5.26 17.7309 5.26Z" fill="#FF4D00"/>
<path d="M26.5141 13.4V0H24.2741V13.4H26.5141Z" fill="#FF4D00"/>
<path d="M33.2034 13.6C35.3634 13.6 36.6834 12.62 37.4234 11.5L36.0434 10.06C35.6834 10.88 34.9234 11.76 33.2234 11.76C31.6834 11.76 30.6634 10.82 30.5434 9.08H37.5034C37.5434 8.88 37.5834 8.46 37.5834 8.1C37.5834 5.4 35.9634 3.46 33.0434 3.46C30.3034 3.46 28.4034 5.48 28.4034 8.54C28.4034 11.58 30.3034 13.6 33.2034 13.6ZM33.0434 5.26C34.5234 5.26 35.4034 6.1 35.5634 7.64H30.5634C30.7434 6.06 31.6634 5.26 33.0434 5.26Z" fill="#FF4D00"/>
<path d="M42.8917 13.62C44.3117 13.62 45.2717 12.96 45.6917 12.34L44.9917 10.34C44.7117 10.9 44.1517 11.52 43.3917 11.52C42.7317 11.52 42.2317 11.26 42.2317 10.2V5.4H45.2117V3.66H42.2317V1.06L39.9917 2.48V3.66H38.4717V5.4H39.9917V10.74C39.9917 12.46 41.0517 13.62 42.8917 13.62Z" fill="#FF4D00"/>
<path d="M50.8792 13.6C53.0392 13.6 54.3592 12.62 55.0992 11.5L53.7192 10.06C53.3592 10.88 52.5992 11.76 50.8992 11.76C49.3592 11.76 48.3392 10.82 48.2192 9.08H55.1792C55.2192 8.88 55.2592 8.46 55.2592 8.1C55.2592 5.4 53.6392 3.46 50.7192 3.46C47.9792 3.46 46.0792 5.48 46.0792 8.54C46.0792 11.58 47.9792 13.6 50.8792 13.6ZM50.7192 5.26C52.1992 5.26 53.0792 6.1 53.2392 7.64H48.2392C48.4192 6.06 49.3392 5.26 50.7192 5.26Z" fill="#FF4D00"/>
<path d="M63.6625 2.28V0H61.4225V2.28H63.6625ZM63.6625 13.4V3.66H61.4225V13.4H63.6625Z" fill="#FF4D00"/>
<path d="M69.5519 13.62C70.9719 13.62 71.9319 12.96 72.3519 12.34L71.6519 10.34C71.3719 10.9 70.8119 11.52 70.0519 11.52C69.3919 11.52 68.8919 11.26 68.8919 10.2V5.4H71.8719V3.66H68.8919V1.06L66.6519 2.48V3.66H65.1319V5.4H66.6519V10.74C66.6519 12.46 67.7119 13.62 69.5519 13.62Z" fill="#FF4D00"/>
<path d="M77.5394 13.6C79.6994 13.6 81.0194 12.62 81.7594 11.5L80.3794 10.06C80.0194 10.88 79.2594 11.76 77.5594 11.76C76.0194 11.76 74.9994 10.82 74.8794 9.08H81.8394C81.8794 8.88 81.9194 8.46 81.9194 8.1C81.9194 5.4 80.2994 3.46 77.3794 3.46C74.6394 3.46 72.7394 5.48 72.7394 8.54C72.7394 11.58 74.6394 13.6 77.5394 13.6ZM77.3794 5.26C78.8594 5.26 79.7394 6.1 79.8994 7.64H74.8994C75.0794 6.06 75.9994 5.26 77.3794 5.26Z" fill="#FF4D00"/>
<path d="M86.1234 13.4V7.94C86.1234 6.34 86.6834 5.28 88.0034 5.28C89.3234 5.28 89.8834 5.96 89.8834 7.3V13.4H92.1234V7.94C92.1234 6.34 92.6834 5.28 94.0034 5.28C95.3234 5.28 95.8834 5.96 95.8834 7.3V13.4H98.1234V6.62C98.1234 4.6 97.1434 3.46 95.2834 3.46C93.4234 3.46 92.4634 4.8 92.1234 6.34C92.0234 4.5 91.0634 3.46 89.2834 3.46C87.4434 3.46 86.4834 4.78 86.1234 6.32V3.66H83.8834V13.4H86.1234Z" fill="#FF4D00"/>
</svg>
